<svg xmlns="http://www.w3.org/2000/svg" version="1.0" preserveAspectRatio="xMidYMid meet" viewBox="48 216 389.1 87.71">

<g transform="translate(0.000000,500.000000) scale(0.100000,-0.100000)" fill="#000000" stroke="none">
<path d="M480 2796 l0 -44 49 -7 c47 -6 49 -8 55 -43 3 -20 6 -128 6 -239 l0 -203 -55 0 -55 0 0 -50 0 -50 166 0 167 0 -7 31 c-3 17 -6 40 -6 50 0 16 -8 19 -55 19 l-55 0 0 240 0 240 54 0 c30 0 57 4 61 9 3 6 3 28 -1 50 l-7 41 -158 0 -159 0 0 -44z"/>
<path d="M1590 2500 l0 -340 55 0 55 0 0 133 c1 114 3 135 19 155 11 12 22 22 25 22 3 0 45 -70 93 -155 l87 -155 64 0 64 0 -20 33 c-104 171 -212 357 -212 365 0 5 50 68 110 141 61 72 110 134 110 136 0 3 -29 5 -65 5 l-65 0 -102 -129 -103 -129 -3 129 -3 129 -54 0 -55 0 0 -340z"/>
<path d="M1224 2650 c-18 -6 -48 -28 -67 -49 -33 -37 -36 -38 -41 -18 -3 12 -6 32 -6 45 0 20 -5 22 -50 22 l-50 0 0 -245 0 -245 55 0 55 0 0 145 c0 126 3 151 20 185 36 71 124 93 171 44 23 -24 24 -32 27 -200 l4 -174 50 0 49 0 -3 199 c-3 183 -5 202 -24 227 -46 62 -117 86 -190 64z"/>
<path d="M2339 2654 c-15 -3 -50 -19 -79 -37 -76 -46 -113 -114 -114 -211 0 -60 4 -79 28 -124 50 -90 123 -131 237 -132 74 0 140 19 184 54 l29 24 -27 35 -27 36 -48 -24 c-26 -13 -63 -25 -82 -26 -84 -5 -101 0 -141 40 -70 69 -66 71 161 71 l200 0 0 33 c0 94 -61 197 -142 238 -38 19 -131 31 -179 23z m131 -112 c19 -9 43 -32 53 -49 l19 -33 -141 0 c-78 0 -141 4 -141 9 0 4 10 21 22 36 42 53 124 70 188 37z"/>
<path d="M2892 2642 c-101 -36 -162 -126 -162 -237 1 -149 109 -255 260 -255 77 0 125 12 171 43 42 28 45 44 16 80 l-23 28 -47 -27 c-58 -32 -144 -36 -195 -10 -29 15 -72 68 -72 89 0 4 93 7 206 7 l205 0 -7 48 c-23 153 -102 235 -240 247 -43 4 -73 1 -112 -13z m151 -93 c32 -17 77 -61 77 -76 0 -10 -31 -13 -141 -13 l-141 0 19 31 c33 58 129 87 186 58z"/>
<path d="M3527 2646 c-20 -8 -43 -19 -51 -25 -11 -9 -15 -7 -19 9 -4 17 -13 20 -56 20 l-51 0 0 -339 0 -339 45 -6 c25 -4 49 -4 55 -1 6 4 10 55 10 121 l0 115 31 -23 c25 -19 43 -23 103 -23 63 0 78 4 113 28 23 16 53 51 69 80 26 47 29 61 29 142 0 104 -19 152 -80 203 -61 49 -128 62 -198 38z m96 -101 c50 -24 71 -61 75 -130 4 -68 -15 -116 -60 -148 -35 -26 -104 -27 -146 -2 l-32 19 0 118 0 118 33 20 c38 24 88 26 130 5z"/>
<path d="M4052 2645 c-54 -15 -112 -41 -112 -51 0 -5 30 -65 35 -72 2 -2 31 7 66 18 116 39 219 15 219 -51 0 -17 -8 -19 -74 -19 -107 0 -194 -29 -240 -80 -31 -34 -36 -47 -36 -89 0 -90 66 -151 165 -151 67 0 118 15 155 46 l30 26 0 -31 c0 -31 0 -31 56 -31 l55 0 -3 194 c-3 179 -5 197 -24 223 -51 69 -181 99 -292 68z m192 -271 c9 -3 16 -16 16 -29 0 -63 -113 -119 -192 -96 -60 18 -73 70 -25 101 38 24 162 39 201 24z"/>
</g>
</svg>