<svg width="281.13124999999997px" height="101.6px" xmlns="http://www.w3.org/2000/svg" viewBox="109.43437500000002 24.200000000000003 281.13124999999997 101.6" style="background: rgba(0, 0, 0, 0);" preserveAspectRatio="xMidYMid"><defs><linearGradient id="editing-sticker-gradient" x1="0.7977638454923965" y1="0.46343919697845576" x2="0.2022361545076034" y2="0.5365608030215443"><stop offset="0" stop-color="#eb99ff"></stop><stop offset="1" stop-color="#ff9999"></stop></linearGradient><filter id="editing-sticker" x="-100%" y="-100%" width="300%" height="300%"><feMorphology operator="erode" radius="1" in="SourceAlpha" result="alpha-erode"></feMorphology><feConvolveMatrix order="3,3" divisor="1" kernelMatrix="0 1 0 1 1 1 0 1 0" in="alpha-erode" result="alpha-round"></feConvolveMatrix><feMorphology operator="dilate" radius="3.5" in="alpha-round" result="dilate-shadow"></feMorphology><feGaussianBlur in="dilate-shadow" stdDeviation="1.5" result="shadow"></feGaussianBlur><feFlood flood-color="#fff" result="flood-sticker"></feFlood><feComposite operator="in" in="flood-sticker" in2="alpha-round" result="comp-sticker"></feComposite><feMorphology operator="dilate" radius="3" in="comp-sticker" result="morph-sticker"></feMorphology><feConvolveMatrix order="3,3" divisor="1" kernelMatrix="0 1 0 1 1 1 0 1 0" in="morph-sticker" result="sticker"></feConvolveMatrix><feMerge><feMergeNode in="shadow"></feMergeNode><feMergeNode in="sticker"></feMergeNode><feMergeNode in="SourceGraphic"></feMergeNode></feMerge></filter></defs><g filter="url(#editing-sticker)"><g transform="translate(152.32000875473022, 94.5)"><path d="M9.90-29.88L9.72-9.36L9.84 0L5.40 0L5.58-9L5.40-29.88L9.90-29.88ZM45.90-30L45.72-8.94L45.78 0L40.98 0L25.26-22.80L24.96-22.80L24.90-9.96L25.02 0L20.94 0L21.12-8.82L21-29.88L25.74-29.88L41.46-7.08L41.88-7.08L41.76-29.70L45.90-30ZM61.74-38.46L61.50-12L61.68 0L56.94 0L57.12-11.58L56.94-38.46L61.74-38.46ZM83.04-38.46L67.44-20.40L67.44-20.40Q75.42-10.08 84.12-1.02L84.12-1.02L84.06-0.42L84.06-0.42Q82.26 0.12 79.56 0.54L79.56 0.54L78.96 0.24L78.96 0.24Q69.48-10.50 62.40-20.16L62.40-20.16L62.40-20.52L75.24-35.10L77.64-38.46L83.04-38.46ZM99.78-3.60L107.76-3.84L108.12-3.48L107.70 0L89.52 0L89.70-9L89.52-29.88L107.82-29.88L108.12-29.52L107.76-26.04L100.20-26.28L93.96-26.22L93.90-17.16L99.84-17.10L105.06-17.28L105.36-16.86L105-13.32L99.48-13.50L93.90-13.44L93.84-9.36L93.90-3.66L99.78-3.60ZM125.88-3.60L133.86-3.84L134.22-3.48L133.80 0L115.62 0L115.80-9L115.62-29.88L133.92-29.88L134.22-29.52L133.86-26.04L126.30-26.28L120.06-26.22L120-17.16L125.94-17.10L131.16-17.28L131.46-16.86L131.10-13.32L125.58-13.50L120-13.44L119.94-9.36L120-3.66L125.88-3.60ZM151.92-29.94L151.92-29.94Q156.66-29.94 159.21-27.66L159.21-27.66L159.21-27.66Q161.76-25.38 161.76-21.06L161.76-21.06L161.76-21.06Q161.76-16.02 158.55-13.17L158.55-13.17L158.55-13.17Q155.34-10.32 149.70-10.32L149.70-10.32L146.04-10.32L146.04-9.36L146.16 0L141.72 0L141.90-9L141.72-29.88L151.92-29.94ZM151.14-13.80L151.14-13.80Q157.08-14.82 157.08-20.70L157.08-20.70L157.08-20.70Q157.08-23.52 155.49-24.90L155.49-24.90L155.49-24.90Q153.90-26.28 150.72-26.40L150.72-26.40L146.16-26.34L146.10-13.92L151.14-13.80ZM179.46-29.88L189.96 0L185.46 0L184.74-3.24L183.18-7.68L176.04-7.74L169.68-7.68L168.06-3.48L167.22 0L162.78 0L174.30-29.88L179.46-29.88ZM176.40-11.28L181.92-11.34L176.94-25.50L176.58-25.50L171.12-11.34L176.40-11.28Z" fill="url(#editing-sticker-gradient)" stroke="#000000" stroke-width="2"></path></g></g><style>text {
  font-size: 64px;
  font-family: Arial Black;
  dominant-baseline: central;
  text-anchor: middle;
}</style></svg>