<svg xmlns:inkscape="http://www.inkscape.org/namespaces/inkscape" xmlns:sodipodi="http://sodipodi.sourceforge.net/DTD/sodipodi-0.dtd" xmlns="http://www.w3.org/2000/svg" xmlns:svg="http://www.w3.org/2000/svg" version="1.1" id="svg14434" sodipodi:docname="logo6.svg" inkscape:version="1.1.2 (b8e25be833, 2022-02-05)" viewBox="43.89 37.09 139.64 51.23">
  <sodipodi:namedview id="namedview14436" pagecolor="#ffffff" bordercolor="#666666" borderopacity="1.0" inkscape:pageshadow="2" inkscape:pageopacity="0.0" inkscape:pagecheckerboard="0" inkscape:document-units="mm" showgrid="false" inkscape:zoom="0.46235269" inkscape:cx="-29.198489" inkscape:cy="356.87042" inkscape:window-width="1366" inkscape:window-height="705" inkscape:window-x="-8" inkscape:window-y="-8" inkscape:window-maximized="1" inkscape:current-layer="layer1"/>
  <defs id="defs14431"/>
  <g inkscape:label="Layer 1" inkscape:groupmode="layer" id="layer1" style="display:inline">
    <g aria-label="InKeepa" id="text16178" style="font-size:35.2778px;font-family:'Bauhaus 93';-inkscape-font-specification:'Bauhaus 93, ';opacity:0.714744;fill:#0000ff;stroke:#000000;stroke-width:0.264583">
      <g id="path34193" style="fill:#0000ff">
        <path style="color:#000000;-inkscape-font-specification:'Bauhaus 93, ';stroke:none;-inkscape-stroke:none;fill:#0000ff" d="M 60.856328,58.319574 V 81.832367 H 53.86278 V 58.319574 Z" id="path34210"/>
        <path style="color:#000000;-inkscape-font-specification:'Bauhaus 93, ';fill:#0000ff;stroke:none;-inkscape-stroke:none" d="m 53.730469,58.1875 v 23.777344 h 7.257812 V 58.1875 h -0.132812 z m 0.263672,0.263672 h 6.730468 v 23.248047 h -6.730468 z" id="path34212"/>
      </g>
      <g id="path34195" style="fill:#0000ff">
        <path style="color:#000000;-inkscape-font-specification:'Bauhaus 93, ';stroke:none;-inkscape-stroke:none;fill:#0000ff" d="M 80.390033,81.832367 H 73.9477 v -9.69795 q 0,-1.481392 -1.22301,-1.481392 -1.205784,0 -1.205784,1.481392 v 9.69795 h -6.442333 v -9.577372 q 0,-3.35897 2.222088,-5.64996 2.222088,-2.308216 5.443255,-2.308216 3.686254,0 5.908342,2.669951 1.739775,2.084284 1.739775,5.80499 z" id="path34216"/>
        <path style="color:#000000;-inkscape-font-specification:'Bauhaus 93, ';fill:#0000ff;stroke:none;-inkscape-stroke:none" d="m 72.742187,64.164062 c -2.179041,0 -4.035521,0.787791 -5.539062,2.34961 -1.503887,1.550519 -2.259766,3.473704 -2.259766,5.742187 v 9.708985 h 6.707032 v -9.830078 c 0,-0.475851 0.09973,-0.813934 0.273437,-1.027344 0.173706,-0.213411 0.425942,-0.322266 0.800781,-0.322266 0.380963,0 0.638185,0.108758 0.814453,0.322266 0.176269,0.213508 0.275391,0.55175 0.275391,1.027344 v 9.830078 h 6.707031 v -0.132813 -9.060547 c 0,-2.501087 -0.584866,-4.46942 -1.769531,-5.888672 -1.504399,-1.807612 -3.520326,-2.718749 -6.009766,-2.71875 z m 0,0.265625 c 2.425561,0 4.34826,0.868775 5.806641,2.621094 1.135033,1.359792 1.708985,3.260855 1.708984,5.720703 v 8.927735 h -6.177734 v -9.564453 c 0,-0.512 -0.104536,-0.915024 -0.335937,-1.195313 -0.231402,-0.280289 -0.585155,-0.417969 -1.019532,-0.417969 -0.429015,0 -0.779591,0.137583 -1.007812,0.417969 -0.228222,0.280387 -0.330078,0.683569 -0.330078,1.195313 v 9.564453 h -6.177735 v -9.44336 c 0,-2.210139 0.726653,-4.054462 2.185547,-5.558593 1.45924,-1.5158 3.231813,-2.267578 5.347656,-2.267579 z" id="path34218"/>
      </g>
      <g id="path34197" style="fill:#0000ff">
        <path style="color:#000000;-inkscape-font-specification:'Bauhaus 93, ';stroke:none;-inkscape-stroke:none;fill:#0000ff" d="m 105.03971,58.319574 -6.201177,10.662578 6.166727,12.850215 H 97.150435 L 91.827759,68.844348 97.85668,58.319574 Z m -13.418657,0 V 81.832367 H 84.627504 V 58.319574 Z" id="path34222"/>
        <path style="color:#000000;-inkscape-font-specification:'Bauhaus 93, ';fill:#0000ff;stroke:none;-inkscape-stroke:none" d="m 84.496094,58.1875 v 23.777344 h 7.257812 V 69.009766 L 97.0625,81.964844 h 8.15234 L 98.988281,68.988281 105.26953,58.1875 h -0.23047 -7.259763 L 91.753906,68.707031 V 58.1875 h -0.132812 z m 0.263672,0.263672 h 6.728515 v 23.248047 h -6.728515 z m 13.173828,0 h 6.876956 l -6.121097,10.52539 6.105467,12.722657 H 97.238281 L 91.974609,68.853516 Z" id="path34224"/>
      </g>
      <g id="path34199" style="fill:#0000ff">
        <path style="color:#000000;-inkscape-font-specification:'Bauhaus 93, ';stroke:none;-inkscape-stroke:none;fill:#0000ff" d="m 123.78104,74.287603 h -9.76685 q -0.22393,-0.740696 -0.22393,-1.360814 0,-0.861274 0.31006,-1.688098 h 3.27284 q -0.34451,-1.912029 -2.15319,-1.912029 -1.20578,0 -1.9637,1.033529 -0.75792,1.016304 -0.75792,2.618275 0,1.670872 0.72347,2.704401 0.74069,1.03353 1.92925,1.03353 0.96463,0 1.86035,-0.964628 l 3.66903,4.409726 q -2.56659,2.015382 -5.70163,2.015382 -3.82406,0 -6.42511,-2.566598 -2.60105,-2.566598 -2.60105,-6.356206 0,-3.772382 2.61827,-6.373431 2.6355,-2.601048 6.45956,-2.601048 3.73793,0 6.27008,2.549372 2.54937,2.532147 2.54937,6.252853 0,0.37896 -0.0689,1.205784 z" id="path34228"/>
        <path style="color:#000000;-inkscape-font-specification:'Bauhaus 93, ';fill:#0000ff;stroke:none;-inkscape-stroke:none" d="m 115.03125,64.146484 c -2.57936,0 -4.77297,0.884125 -6.55273,2.640625 -1.7682,1.756568 -2.65821,3.921272 -2.65821,6.466797 0,2.55667 0.88343,4.717245 2.64063,6.451172 1.7571,1.73383 3.93861,2.603516 6.51758,2.603516 2.11837,0 4.05156,-0.683224 5.7832,-2.042969 l 0.10742,-0.08398 -3.85156,-4.63086 -0.10352,0.111328 c -0.58103,0.625733 -1.16468,0.921875 -1.76367,0.921875 -0.75403,0 -1.34604,-0.316729 -1.82031,-0.978515 -0.46247,-0.661414 -0.69922,-1.532893 -0.69922,-2.626953 0,-1.047117 0.24706,-1.888231 0.73242,-2.539063 v -0.002 c 0.4855,-0.66204 1.09137,-0.978516 1.85742,-0.978516 0.57959,0 1.02216,0.151064 1.35352,0.445313 0.29329,0.260439 0.47017,0.689147 0.5918,1.201172 h -3.15821 l -0.0312,0.08594 c -0.21201,0.565356 -0.31836,1.146271 -0.31836,1.736328 0,0.429336 0.0763,0.894852 0.22852,1.398438 l 0.0293,0.09375 h 9.98632 l 0.01,-0.121094 c 0.0461,-0.552882 0.0703,-0.95614 0.0703,-1.216797 0,-2.510097 -0.86613,-4.634982 -2.58789,-6.345703 -1.71103,-1.722672 -3.84125,-2.589844 -6.36328,-2.589844 z m 0,0.265625 c 2.46188,0 4.51062,0.833278 6.17578,2.509766 1.67659,1.665266 2.50977,3.709903 2.50977,6.160156 0,0.21983 -0.0236,0.607559 -0.0606,1.074219 h -9.5312 c -0.12616,-0.444019 -0.20313,-0.859216 -0.20312,-1.228516 -1e-5,-0.52911 0.10626,-1.046733 0.2871,-1.55664 h 3.32227 l -0.0273,-0.15625 c -0.11842,-0.657223 -0.36754,-1.166672 -0.75391,-1.509766 -0.38637,-0.343094 -0.9031,-0.509766 -1.5293,-0.509766 -0.84165,0 -1.54525,0.369941 -2.07031,1.085938 -0.52519,0.704238 -0.78516,1.608423 -0.78516,2.697266 0,1.133007 0.24653,2.06284 0.74805,2.779296 v 0.002 h 0.002 c 0.51331,0.716252 1.20444,1.089843 2.03516,1.089843 0.63973,0 1.24581,-0.363178 1.82227,-0.9375 l 3.5039,4.212891 c -1.65958,1.266899 -3.48378,1.919922 -5.49804,1.919922 -2.51978,0 -4.62108,-0.840999 -6.33204,-2.529297 -1.71086,-1.6882 -2.5625,-3.765583 -2.5625,-6.261719 0,-2.484312 0.85726,-4.567802 2.58008,-6.279297 1.73423,-1.711559 3.84781,-2.5625 6.36719,-2.5625 z" id="path34230"/>
      </g>
      <g id="path34201" style="fill:#0000ff">
        <path style="color:#000000;-inkscape-font-specification:'Bauhaus 93, ';stroke:none;-inkscape-stroke:none;fill:#0000ff" d="m 143.33197,74.287603 h -9.76685 q -0.22393,-0.740696 -0.22393,-1.360814 0,-0.861274 0.31006,-1.688098 h 3.27284 q -0.34451,-1.912029 -2.15319,-1.912029 -1.20578,0 -1.9637,1.033529 -0.75792,1.016304 -0.75792,2.618275 0,1.670872 0.72347,2.704401 0.74069,1.03353 1.92925,1.03353 0.96463,0 1.86035,-0.964628 l 3.66903,4.409726 q -2.56659,2.015382 -5.70163,2.015382 -3.82406,0 -6.42511,-2.566598 -2.60105,-2.566598 -2.60105,-6.356206 0,-3.772382 2.61827,-6.373431 2.6355,-2.601048 6.45956,-2.601048 3.73793,0 6.27008,2.549372 2.54937,2.532147 2.54937,6.252853 0,0.37896 -0.0689,1.205784 z" id="path34234"/>
        <path style="color:#000000;-inkscape-font-specification:'Bauhaus 93, ';fill:#0000ff;stroke:none;-inkscape-stroke:none" d="m 134.58203,64.146484 c -2.57936,0 -4.77297,0.884125 -6.55273,2.640625 -1.7682,1.756568 -2.65821,3.921272 -2.65821,6.466797 0,2.55667 0.88343,4.717245 2.64063,6.451172 1.7571,1.73383 3.93861,2.603516 6.51758,2.603516 2.11837,0 4.05156,-0.683224 5.7832,-2.042969 l 0.10742,-0.08398 -3.85156,-4.63086 -0.10352,0.111328 c -0.58103,0.625733 -1.16468,0.921875 -1.76367,0.921875 -0.75403,0 -1.34603,-0.316729 -1.82031,-0.978515 -0.46247,-0.661414 -0.69922,-1.532893 -0.69922,-2.626953 0,-1.047117 0.24706,-1.888231 0.73242,-2.539063 v -0.002 c 0.4855,-0.66204 1.09137,-0.978516 1.85742,-0.978516 0.57959,0 1.02216,0.151064 1.35352,0.445313 0.29329,0.260439 0.47017,0.689147 0.5918,1.201172 h -3.15625 l -0.0332,0.08594 c -0.21201,0.565356 -0.31836,1.146271 -0.31836,1.736328 0,0.429336 0.0782,0.894852 0.23047,1.398438 l 0.0274,0.09375 h 9.98632 l 0.01,-0.121094 c 0.0461,-0.552882 0.0703,-0.95614 0.0703,-1.216797 0,-2.510097 -0.86613,-4.634982 -2.58789,-6.345703 -1.71103,-1.722672 -3.84125,-2.589844 -6.36328,-2.589844 z m 0,0.265625 c 2.46188,0 4.51062,0.833278 6.17578,2.509766 1.6766,1.665266 2.51172,3.709903 2.51172,6.160156 0,0.219832 -0.0256,0.607553 -0.0625,1.074219 h -9.53125 c -0.12616,-0.444019 -0.20312,-0.859216 -0.20312,-1.228516 0,-0.52911 0.10626,-1.046733 0.28711,-1.55664 h 3.32226 l -0.0273,-0.15625 c -0.11842,-0.657223 -0.36754,-1.166672 -0.75391,-1.509766 -0.38637,-0.343094 -0.90309,-0.509766 -1.5293,-0.509766 -0.84165,0 -1.54524,0.369941 -2.07031,1.085938 -0.52519,0.704238 -0.78515,1.608423 -0.78515,2.697266 0,1.133007 0.24652,2.06284 0.74804,2.779296 v 0.002 h 0.002 c 0.51331,0.716252 1.20443,1.089843 2.03515,1.089843 0.63923,0 1.24621,-0.364062 1.82227,-0.9375 l 3.5039,4.212891 c -1.65958,1.266899 -3.48378,1.919922 -5.49804,1.919922 -2.51978,0 -4.62107,-0.840999 -6.33203,-2.529297 -1.71087,-1.6882 -2.56055,-3.765583 -2.56055,-6.261719 0,-2.484312 0.8553,-4.567802 2.57812,-6.279297 1.73423,-1.711559 3.84781,-2.5625 6.36719,-2.5625 z" id="path34236"/>
      </g>
      <g id="path34203" style="fill:#0000ff">
        <path style="color:#000000;-inkscape-font-specification:'Bauhaus 93, ';stroke:none;-inkscape-stroke:none;fill:#0000ff" d="m 152.06529,88.188572 h -6.44233 V 73.856966 q 0,-3.944637 2.06706,-6.425108 1.18856,-1.429715 3.01446,-2.273764 1.84312,-0.844049 3.77238,-0.844049 3.84128,0 6.47678,2.583823 2.6355,2.583823 2.6355,6.33898 0,3.651804 -2.61827,6.304529 -2.61828,2.652725 -6.20118,2.652725 -0.58566,0 -1.72255,-0.120578 v -7.096902 q 0.79238,0.637343 1.58475,0.637343 0.99908,0 1.70532,-0.740696 0.72347,-0.740696 0.72347,-1.757 0,-1.016303 -0.74069,-1.722548 -0.7407,-0.723471 -1.77423,-0.723471 -2.48047,0 -2.48047,3.427872 z" id="path34240"/>
        <path style="color:#000000;-inkscape-font-specification:'Bauhaus 93, ';fill:#0000ff;stroke:none;-inkscape-stroke:none" d="m 154.47656,64.181641 c -1.30546,0 -2.58349,0.285494 -3.82812,0.855468 -1.23317,0.570049 -2.25507,1.341638 -3.06055,2.310547 -1.40012,1.680141 -2.09766,3.856903 -2.09766,6.509766 v 14.46289 h 6.70704 V 88.189453 74.097656 c 0,-1.126668 0.20684,-1.95481 0.5957,-2.492187 0.38885,-0.537378 0.9556,-0.802735 1.75195,-0.802735 0.65815,0 1.2118,0.224725 1.6836,0.685547 v 0.002 c 0.47085,0.44896 0.69921,0.981557 0.69921,1.626953 0,0.646145 -0.22436,1.191902 -0.68554,1.664063 -0.44933,0.471248 -0.97602,0.701172 -1.60938,0.701172 -0.49277,0 -0.99048,-0.197978 -1.50195,-0.609375 l -0.2168,-0.171875 v 7.492187 l 0.11914,0.01172 c 0.7603,0.08064 1.33681,0.121094 1.73633,0.121094 2.42125,0 4.52821,-0.901453 6.29492,-2.691406 1.76683,-1.790082 2.65625,-3.932288 2.65625,-6.398438 0,-2.534384 -0.89395,-4.688618 -2.67383,-6.433594 -1.77994,-1.74504 -3.97979,-2.621093 -6.57031,-2.621093 z m 0,0.265625 c 2.53119,0 4.65071,0.844868 6.38477,2.544921 1.73412,1.700119 2.5957,3.771655 2.5957,6.244141 0,2.402917 -0.85589,4.46601 -2.58008,6.212891 -1.72432,1.74701 -3.75147,2.613281 -6.10742,2.613281 -0.35478,0 -0.91081,-0.04397 -1.58984,-0.113281 v -6.783203 c 0.4778,0.334459 0.96203,0.580078 1.45312,0.580078 0.69811,0 1.30674,-0.265834 1.79883,-0.78125 0.50345,-0.515433 0.76172,-1.13873 0.76172,-1.847657 0,-0.709673 -0.26452,-1.325659 -0.78125,-1.818359 -0.5158,-0.503804 -1.1473,-0.761719 -1.86719,-0.761719 -0.85729,0 -1.52883,0.306864 -1.9668,0.91211 -0.43796,0.605245 -0.64453,1.48986 -0.64453,2.648437 v 13.958985 h -6.17773 V 73.857422 c 0,-2.606648 0.6792,-4.714646 2.03516,-6.341797 0.77926,-0.937375 1.76738,-1.682932 2.96875,-2.238281 v 0.002 c 1.21285,-0.555424 2.44991,-0.832031 3.71679,-0.832031 z" id="path34242"/>
      </g>
      <g id="path34205" style="fill:#0000ff">
        <path style="color:#000000;-inkscape-font-specification:'Bauhaus 93, ';stroke:none;-inkscape-stroke:none;fill:#0000ff" d="m 175.95705,75.390034 v 6.666264 q -0.79237,0.137804 -1.44694,0.137804 -3.87574,0 -6.45956,-2.549372 -2.58382,-2.549373 -2.58382,-6.390657 0,-3.737931 2.60104,-6.33898 2.61828,-2.601048 6.35621,-2.601048 4.16857,0 6.56291,2.446019 2.41157,2.428794 2.41157,6.649039 v 8.423264 h -6.44233 v -7.958176 q 0,-1.360814 -0.6718,-2.170412 -0.65457,-0.809598 -1.77422,-0.809598 -1.01631,0 -1.757,0.740696 -0.7407,0.740696 -0.7407,1.757 0,1.067981 0.67179,1.757 0.6718,0.68902 1.70533,0.68902 0.84405,0 1.56752,-0.447863 z" id="path34246"/>
        <path style="color:#000000;-inkscape-font-specification:'Bauhaus 93, ';fill:#0000ff;stroke:none;-inkscape-stroke:none" d="m 174.42383,64.181641 c -2.52264,0 -4.68137,0.882458 -6.44922,2.638671 v 0.002 c -1.75643,1.756436 -2.64063,3.909004 -2.64063,6.43164 0,2.590515 0.87686,4.761464 2.62305,6.484375 1.74609,1.722806 3.93991,2.587891 6.55274,2.587891 0.44566,0 0.93639,-0.04575 1.4707,-0.138672 l 0.10937,-0.01953 v -7.015625 l -0.20312,0.125 c -0.46274,0.286456 -0.95875,0.427734 -1.49805,0.427734 -0.65962,0 -1.18518,-0.21337 -1.60937,-0.648437 -0.42401,-0.434884 -0.63477,-0.979815 -0.63477,-1.664063 0,-0.645396 0.22877,-1.191657 0.70117,-1.664062 0.4724,-0.472405 1.01866,-0.701172 1.66407,-0.701172 0.71454,0 1.25868,0.248711 1.67187,0.759765 v 0.002 c 0.42461,0.511701 0.64258,1.200499 0.64258,2.085938 v 8.089844 h 6.70703 v -8.556641 c 0,-2.837586 -0.81579,-5.09402 -2.44922,-6.740234 -1.62307,-1.658103 -3.85328,-2.486328 -6.6582,-2.486328 z m 0,0.265625 c 2.75317,0 4.89937,0.802997 6.46875,2.40625 1.58072,1.592008 2.37304,3.766392 2.37304,6.554687 v 8.291016 h -6.17773 V 73.875 c 0,-0.928245 -0.2308,-1.686292 -0.70117,-2.253906 -0.45957,-0.568409 -1.09864,-0.859375 -1.87695,-0.859375 -0.70968,0 -1.33443,0.264108 -1.84961,0.779297 -0.5152,0.515188 -0.7793,1.141888 -0.7793,1.851562 0,0.739725 0.23727,1.365802 0.70898,1.849609 0.47154,0.483626 1.08041,0.728516 1.79883,0.728516 0.5134,0 0.98578,-0.171446 1.43555,-0.410156 v 6.375 c -0.47541,0.07736 -0.92015,0.126953 -1.31445,0.126953 -2.55482,0 -4.66819,-0.835366 -6.36719,-2.511719 -1.6989,-1.676249 -2.54297,-3.765683 -2.54297,-6.296875 0,-2.461266 0.85088,-4.534468 2.5625,-6.246094 1.72279,-1.710494 3.80142,-2.560546 6.26172,-2.560546 z" id="path34248"/>
      </g>
    </g>
    <text xml:space="preserve" style="font-size:10.5833px;line-height:8.19999px;font-family:'Bauhaus 93';-inkscape-font-specification:'Bauhaus 93, ';stroke-width:0.264583" x="53.791908" y="97.855492" id="text54407"><tspan sodipodi:role="line" id="tspan54405" style="stroke-width:0.264583" x="53.791908" y="97.855492"/></text>
    <ellipse style="opacity:1;fill:#d40000;fill-opacity:1;stroke:#008600;stroke-width:0;stroke-miterlimit:4;stroke-dasharray:none;stroke-opacity:1" id="path60927" cx="58.656075" cy="50.072258" rx="13.447976" ry="4.8641615"/>
    <ellipse style="opacity:1;fill:#ff6600;fill-opacity:1;stroke:#388600;stroke-width:0;stroke-miterlimit:4;stroke-dasharray:none;stroke-dashoffset:0;stroke-opacity:1" id="path60881" cx="69.851608" cy="24.972858" rx="13.734104" ry="4.5780349" transform="rotate(18.434948)"/>
  </g>
</svg>